<!DOCTYPE svg PUBLIC "-//W3C//DTD SVG 1.1//EN" "http://www.w3.org/Graphics/SVG/1.1/DTD/svg11.dtd">
<!-- Uploaded to: SVG Repo, www.svgrepo.com, Transformed by: SVG Repo Mixer Tools -->
<svg width="800px" height="800px" viewBox="0 0 48 48" xmlns="http://www.w3.org/2000/svg" fill="#c0c0c8">
<g id="SVGRepo_bgCarrier" stroke-width="0"/>
<g id="SVGRepo_tracerCarrier" stroke-linecap="round" stroke-linejoin="round"/>
<g id="SVGRepo_iconCarrier"> <title>invoice-solid</title> <g id="Layer_2" data-name="Layer 2"> <g id="invisible_box" data-name="invisible box"> <rect width="48" height="48" fill="none"/> <rect width="48" height="48" fill="none"/> <rect width="48" height="48" fill="none"/> </g> <g id="Q3_icons" data-name="Q3 icons"> <path d="M41,2H7A2,2,0,0,0,5,4V43a1,1,0,0,0,1,1,1.1,1.1,0,0,0,.7-.3L13,39.1l4.3,4.6a1,1,0,0,0,1.4,0L24,39.1l5.3,4.6a1,1,0,0,0,1.4,0L35,39.1l6.3,4.6a1.1,1.1,0,0,0,.7.3,1,1,0,0,0,1-1V4A2,2,0,0,0,41,2ZM24,30H16a2,2,0,0,1,0-4h8a2,2,0,0,1,0,4Zm0-8H16a2,2,0,0,1,0-4h8a2,2,0,0,1,0,4Zm0-8H16a2,2,0,0,1,0-4h8a2,2,0,0,1,0,4Zm8,16H30a2,2,0,0,1,0-4h2a2,2,0,0,1,0,4Zm0-8H30a2,2,0,0,1,0-4h2a2,2,0,0,1,0,4Zm0-8H30a2,2,0,0,1,0-4h2a2,2,0,0,1,0,4Z"/> </g> </g> </g>
</svg>